<?xml version="1.0" encoding="UTF-8"?>
<svg width="70px" height="70px" viewBox="0 0 70 70" version="1.1" xmlns="http://www.w3.org/2000/svg" xmlns:xlink="http://www.w3.org/1999/xlink">
    <!-- Generator: Sketch 42 (36781) - http://www.bohemiancoding.com/sketch -->
    <title>Layer_1</title>
    <desc>Created with Sketch.</desc>
    <defs></defs>
    <g id="Page-1" stroke="none" stroke-width="1" fill="none" fill-rule="evenodd">
        <g id="content-(1)">
            <g id="Layer_1">
                <circle id="Oval-2" fill="#57385C" cx="35" cy="35" r="35"></circle>
                <g id="Group-3" transform="translate(16.000000, 17.000000)" fill-rule="nonzero" fill="#FFFFFF">
                    <path d="M37.3790845,0.0202262324 L18.9868421,0.0202262324 L0.594599661,0.0202262324 C0.266186626,0.0202262324 0,0.283240537 0,0.607666373 L0,8.12757438 L0,36.3271928 C0,36.6516186 0.266186626,36.9147062 0.594599661,36.9147062 L18.9868421,36.9147062 L37.3790845,36.9147062 C37.7074234,36.9147062 37.9736842,36.6516919 37.9736842,36.3271928 L37.9736842,8.12757438 L37.9736842,0.607666373 C37.9736842,0.283240537 37.7074976,0.0202262324 37.3790845,0.0202262324 Z M36.7845591,35.7396794 L18.9868421,35.7396794 L1.18912515,35.7396794 L1.18912515,8.71508781 L18.9868421,8.71508781 L36.7845591,8.71508781 L36.7845591,35.7396794 Z M36.7845591,7.54006096 L18.9868421,7.54006096 L1.18912515,7.54006096 L1.18912515,1.1951798 L18.9868421,1.1951798 L36.7845591,1.1951798 L36.7845591,7.54006096 Z" id="Shape"></path>
                    <path d="M31.6711651,2.52681338 L24.6947615,2.52681338 C24.3664226,2.52681338 24.1001619,2.78982768 24.1001619,3.1143268 C24.1001619,3.43875264 24.3663485,3.70184023 24.6947615,3.70184023 L31.6711651,3.70184023 C31.999504,3.70184023 32.2657648,3.43882592 32.2657648,3.1143268 C32.2657648,2.78990097 31.999504,2.52681338 31.6711651,2.52681338 Z" id="Shape"></path>
                    <path d="M34.8422644,2.52681338 L33.5738544,2.52681338 C33.2455155,2.52681338 32.9792547,2.78982768 32.9792547,3.1143268 C32.9792547,3.43875264 33.2454414,3.70184023 33.5738544,3.70184023 L34.8422644,3.70184023 C35.1706033,3.70184023 35.4368641,3.43882592 35.4368641,3.1143268 C35.4367899,2.78990097 35.1706033,2.52681338 34.8422644,2.52681338 Z" id="Shape"></path>
                    <path d="M19.6210471,1.90016659 C19.3366153,1.90016659 19.0564852,1.94758099 18.7887411,2.04116395 C18.7880736,2.0413838 18.7875544,2.04175022 18.7868869,2.04189679 C17.7921544,2.39028631 17.1238324,3.32465031 17.1238324,4.36769366 C17.1238324,5.41066373 17.7921544,6.34502773 18.7868128,6.69349054 C18.7874803,6.69371039 18.7879994,6.6940768 18.7886669,6.69429665 C19.0564852,6.78780634 19.3365412,6.83529401 19.620973,6.83529401 C20.997964,6.83529401 22.1181877,5.72834749 22.1181877,4.36784023 C22.1181877,3.00733297 20.9980382,1.90016659 19.6210471,1.90016659 Z M19.6210471,5.6601206 C19.4718966,5.6601206 19.3252677,5.63527751 19.1849431,5.58632416 C19.1848689,5.58632416 19.1847948,5.58625088 19.1847206,5.58625088 C18.6633241,5.40392165 18.3129575,4.91424164 18.3129575,4.36762038 C18.3129575,3.82099912 18.6632499,3.33139239 19.1847948,3.14898988 C19.1848689,3.14898988 19.1849431,3.14898988 19.1850173,3.14891659 C19.3252677,3.09988996 19.4719708,3.07512016 19.6211213,3.07512016 C20.3423988,3.07512016 20.9292109,3.65493882 20.9292109,4.36762038 C20.9292109,5.08030194 20.3423246,5.6601206 19.6210471,5.6601206 Z" id="Shape"></path>
                    <path d="M12.6447177,1.90016659 C11.2677266,1.90016659 10.1475029,3.00711312 10.1475029,4.36762038 C10.1475029,5.72812764 11.2678008,6.83507416 12.6447177,6.83507416 C14.0216346,6.83507416 15.1419324,5.72820092 15.1419324,4.36762038 C15.1419324,3.00703983 14.0216346,1.90016659 12.6447177,1.90016659 Z M12.6447177,5.6601206 C11.9234402,5.6601206 11.3366281,5.08030194 11.3366281,4.36762038 C11.3366281,3.65493882 11.9234402,3.07512016 12.6447177,3.07512016 C13.3659952,3.07512016 13.9528073,3.65493882 13.9528073,4.36762038 C13.9528073,5.08030194 13.365921,5.6601206 12.6447177,5.6601206 Z" id="Shape"></path>
                    <path d="M5.66831404,1.90016659 C4.29132299,1.90016659 3.1710993,3.00711312 3.1710993,4.36762038 C3.1710993,5.72812764 4.29139715,6.83507416 5.66831404,6.83507416 C7.04523093,6.83507416 8.16552878,5.72820092 8.16552878,4.36762038 C8.16552878,3.00703983 7.0453051,1.90016659 5.66831404,1.90016659 Z M5.66831404,5.6601206 C4.94703654,5.6601206 4.36022446,5.08030194 4.36022446,4.36762038 C4.36022446,3.65493882 4.94703654,3.07512016 5.66831404,3.07512016 C6.38959154,3.07512016 6.97640363,3.65493882 6.97640363,4.36762038 C6.97640363,5.08030194 6.38959154,5.6601206 5.66831404,5.6601206 Z" id="Shape"></path>
                    <path d="M35.6340009,15.4288779 L29.3556604,9.22521391 C29.1234424,8.99576342 28.746969,8.99576342 28.514751,9.22521391 L24.5123098,13.1800286 L18.9868421,13.1800286 L5.35117444,13.1800286 C5.02283558,13.1800286 4.75657478,13.4430429 4.75657478,13.767542 C4.75657478,14.0920412 5.02276141,14.3550555 5.35117444,14.3550555 L18.9868421,14.3550555 L23.3231105,14.3550555 L18.5663874,19.0550896 L14.3648069,23.2065971 L5.35117444,23.2065971 C5.02283558,23.2065971 4.75657478,23.4696114 4.75657478,23.7941105 C4.75657478,24.1186096 5.02276141,24.3816239 5.35117444,24.3816239 L13.1756076,24.3816239 L11.8941441,25.6478154 C11.8934766,25.6484749 11.8928832,25.6490612 11.8921416,25.649794 L11.8911032,25.65082 C11.889249,25.6526521 11.8877657,25.6545574 11.8859857,25.6564628 C11.8741931,25.6684813 11.8626971,25.6807929 11.8517945,25.6938374 C11.8477153,25.6986008 11.8443778,25.7037306 11.8404469,25.7086406 C11.8324368,25.7189003 11.8244268,25.72916 11.8170842,25.7400792 C11.8122633,25.7471877 11.8080358,25.7546626 11.8035116,25.761991 C11.7980232,25.7709316 11.7923123,25.7797989 11.7873431,25.7891059 C11.7822997,25.7984861 11.7779238,25.8081596 11.7733996,25.8176864 C11.7697654,25.8253812 11.7658345,25.8328561 11.7625712,25.8407707 C11.757602,25.8526426 11.7533744,25.8648809 11.7491469,25.877046 C11.7470702,25.8830552 11.7446969,25.8888446 11.7427685,25.8950004 C11.7380218,25.9105365 11.7340909,25.9262192 11.7307534,25.9420484 C11.7300859,25.9451263 11.7291217,25.9479844 11.7284542,25.9510623 L11.7280834,25.9528944 C11.727935,25.9536272 11.7277867,25.9542868 11.7277125,25.9550196 L10.2546006,33.2332388 L5.35117444,33.2332388 C5.02283558,33.2332388 4.75657478,33.4962531 4.75657478,33.8207522 C4.75657478,34.145178 5.02276141,34.4082656 5.35117444,34.4082656 L10.7387651,34.4082656 C10.7396551,34.4082656 10.7404709,34.4083389 10.7414351,34.4083389 L10.7421026,34.4083389 L10.7427701,34.4083389 C10.7436601,34.4083389 10.7445501,34.4082656 10.7454401,34.4082656 L11.2109144,34.4082656 C11.3695584,34.4082656 11.5132947,34.3464877 11.6198732,34.2464558 L14.2185489,33.7328853 C14.2189197,33.7328121 14.2192906,33.7327388 14.2196614,33.7326655 L14.2220347,33.7322258 L18.7028553,32.8467419 C18.7033745,32.8466686 18.7039678,32.846522 18.7045612,32.8464487 L18.7066378,32.8460823 C18.7101237,32.8453495 18.7133871,32.8442502 18.7168729,32.8435174 C18.7324481,32.8401463 18.7479491,32.8364822 18.7632275,32.8319386 C18.7697543,32.8299599 18.7759102,32.8274683 18.7823627,32.8253431 C18.7943037,32.8212392 18.8063929,32.8172819 18.8181114,32.8125185 C18.8264181,32.8090742 18.834354,32.8050436 18.8424383,32.8013061 C18.8517834,32.7969824 18.8612026,32.7928785 18.8703994,32.7879685 C18.8800411,32.7828387 18.8891637,32.7771226 18.8984346,32.7716263 C18.9056289,32.7673026 18.9130456,32.763272 18.9200173,32.7586551 C18.9310683,32.7514001 18.9415259,32.7434122 18.9519834,32.7354976 C18.9568785,32.7317601 18.9620702,32.7283891 18.9668911,32.7243585 C18.9798704,32.7138057 18.9921822,32.7025933 19.0041973,32.6910145 C19.0061998,32.6890359 19.0084248,32.6874969 19.010279,32.6855183 L19.0114657,32.6843457 C19.0121332,32.6836862 19.0127265,32.6831732 19.0133198,32.6825136 L19.4070743,32.2934518 L27.5881782,24.2098475 L31.1493237,20.6911426 L35.6338526,16.2600588 C35.8661447,16.0302419 35.8661447,15.6582551 35.6340009,15.4288779 Z M15.0314231,24.2094078 C15.0314972,24.2093345 15.0315714,24.2092612 15.0316456,24.2092612 L19.407371,19.8856842 L24.4507509,14.9024096 L25.6279351,16.0656378 L14.3297257,27.2291989 L13.1524674,26.0659707 L15.0314231,24.2094078 Z M26.4686962,16.8965255 L27.8701625,18.2812896 L22.7113782,23.3785933 L18.5664616,27.4741122 L16.5720273,29.4447775 L15.170561,28.0600134 L26.4686962,16.8965255 Z M11.5000188,33.0715755 L11.7799263,31.6887901 L12.8994825,32.7950037 L11.5000188,33.0715755 Z M14.3008746,32.5181389 L12.0602048,30.3041725 L12.6768321,27.2577795 L13.9093452,28.4756039 L16.1516467,30.6911824 L17.3841598,31.9089335 L14.3008746,32.5181389 Z M26.7474913,23.3785933 L18.5900468,31.4387469 L17.4127884,30.275592 L19.4072227,28.3049267 L23.5521393,24.2094078 L28.7109236,19.1121041 L29.8881078,20.275259 L26.7474913,23.3785933 Z M30.7290173,19.4444445 L29.1314525,17.865919 L26.8890768,15.6503404 L25.291512,14.0717416 L28.9352799,10.4714723 L34.3727851,15.8441752 L30.7290173,19.4444445 Z" id="Shape"></path>
                    <path d="M29.237586,12.0988046 C29.0054422,11.8693541 28.6288945,11.8693541 28.3967507,12.0988046 L26.9697709,13.5087782 C26.7375529,13.7382287 26.7375529,14.1102154 26.9697709,14.3395926 C27.0858428,14.4542812 27.2380342,14.5116622 27.3901514,14.5116622 C27.5422687,14.5116622 27.6944601,14.4543545 27.810532,14.3395926 L29.2375118,12.9296191 C29.469804,12.7001686 29.469804,12.3281085 29.237586,12.0988046 Z" id="Shape"></path>
                </g>
            </g>
        </g>
    </g>
</svg>