<?xml version="1.0" encoding="UTF-8"?>
<svg width="70px" height="70px" viewBox="0 0 70 70" version="1.1" xmlns="http://www.w3.org/2000/svg" xmlns:xlink="http://www.w3.org/1999/xlink">
    <!-- Generator: Sketch 42 (36781) - http://www.bohemiancoding.com/sketch -->
    <title>html</title>
    <desc>Created with Sketch.</desc>
    <defs></defs>
    <g id="Page-1" stroke="none" stroke-width="1" fill="none" fill-rule="evenodd">
        <g id="html">
            <g id="Layer_1">
                <circle id="Oval-2" fill="#57385C" cx="35" cy="35" r="35"></circle>
                <g id="Group-2" transform="translate(16.000000, 16.000000)" fill-rule="nonzero" fill="#FFFFFF">
                    <path d="M37.3320741,0.0202583979 L0.593851852,0.0202583979 C0.265851852,0.0202583979 0,0.283690971 0,0.608632738 L0,8.14049957 L0,36.3849635 C0,36.7099053 0.265851852,36.9734112 0.593851852,36.9734112 L37.3321481,36.9734112 C37.6601481,36.9734112 37.926,36.7099787 37.926,36.3849635 L37.926,8.14049957 L37.926,0.608632738 C37.9259259,0.283690971 37.6601481,0.0202583979 37.3320741,0.0202583979 Z M36.7382963,35.7965157 L1.18762963,35.7965157 L1.18762963,8.72894731 L36.7382222,8.72894731 L36.7382222,35.7965157 L36.7382963,35.7965157 Z M36.7382963,7.55205183 L1.18762963,7.55205183 L1.18762963,1.19708048 L36.7382222,1.19708048 L36.7382222,7.55205183 L36.7382963,7.55205183 Z" id="Shape"></path>
                    <path d="M31.6313333,2.53083174 L24.6637037,2.53083174 C24.3357037,2.53083174 24.0698519,2.79426431 24.0698519,3.11927948 C24.0698519,3.44422125 24.3356296,3.70772722 24.6637037,3.70772722 L31.6313333,3.70772722 C31.9593333,3.70772722 32.2251852,3.44429465 32.2251852,3.11927948 C32.2251852,2.79433771 31.9593333,2.53083174 31.6313333,2.53083174 Z" id="Shape"></path>
                    <path d="M34.7984444,2.53083174 L33.5316296,2.53083174 C33.2036296,2.53083174 32.9377778,2.79426431 32.9377778,3.11927948 C32.9377778,3.44422125 33.2035556,3.70772722 33.5316296,3.70772722 L34.7984444,3.70772722 C35.1264444,3.70772722 35.3922963,3.44429465 35.3922963,3.11927948 C35.3922222,2.79433771 35.1264444,2.53083174 34.7984444,2.53083174 Z" id="Shape"></path>
                    <path d="M19.5963704,1.90318841 C18.2211111,1.90318841 17.1022963,3.01189529 17.1022963,4.37456615 C17.1022963,5.73723701 18.2211852,6.8459439 19.5963704,6.8459439 C20.9715556,6.8459439 22.0904444,5.73731041 22.0904444,4.37456615 C22.0904444,3.01182189 20.9716296,1.90318841 19.5963704,1.90318841 Z M19.5963704,5.66912182 C18.876,5.66912182 18.2899259,5.08838108 18.2899259,4.37456615 C18.2899259,3.66075123 18.876,3.08001049 19.5963704,3.08001049 C20.3167407,3.08001049 20.9028148,3.66075123 20.9028148,4.37456615 C20.9028148,5.08838108 20.3167407,5.66912182 19.5963704,5.66912182 Z" id="Shape"></path>
                    <path d="M12.6288148,1.90318841 C11.2535556,1.90318841 10.1347407,3.01189529 10.1347407,4.37456615 C10.1347407,5.73723701 11.2536296,6.8459439 12.6288148,6.8459439 C14.004,6.8459439 15.1228889,5.73731041 15.1228889,4.37456615 C15.1228889,3.01182189 14.004,1.90318841 12.6288148,1.90318841 Z M12.6288148,5.66912182 C11.9084444,5.66912182 11.3223704,5.08838108 11.3223704,4.37456615 C11.3223704,3.66075123 11.9084444,3.08001049 12.6288148,3.08001049 C13.3491852,3.08001049 13.9352593,3.66075123 13.9352593,4.37456615 C13.9352593,5.08838108 13.3491111,5.66912182 12.6288148,5.66912182 Z" id="Shape"></path>
                    <path d="M5.66118519,1.90318841 C4.28592593,1.90318841 3.16711111,3.01189529 3.16711111,4.37456615 C3.16711111,5.73723701 4.286,6.8459439 5.66118519,6.8459439 C7.03637037,6.8459439 8.15525926,5.73731041 8.15525926,4.37456615 C8.15525926,3.01182189 7.03644444,1.90318841 5.66118519,1.90318841 Z M5.66118519,5.66912182 C4.94081481,5.66912182 4.35474074,5.08838108 4.35474074,4.37456615 C4.35474074,3.66075123 4.94081481,3.08001049 5.66118519,3.08001049 C6.38155556,3.08001049 6.96762963,3.66075123 6.96762963,4.37456615 C6.96762963,5.08838108 6.38155556,5.66912182 5.66118519,5.66912182 Z" id="Shape"></path>
                    <path d="M12.5094074,16.7398225 C12.5222963,16.2684477 12.3491852,15.8203408 12.0218519,15.4780032 C11.6945185,15.1356657 11.2522963,14.9402015 10.7766667,14.9274299 C10.3023704,14.9145849 9.84881481,15.0862675 9.50333333,15.4105486 L3.48585185,21.0594121 C3.12540741,21.397786 2.92274074,21.8740052 2.92977778,22.3660053 C2.93681481,22.8580055 3.15311111,23.328426 3.52318519,23.6564506 L9.54074074,28.9916024 C9.86792593,29.2816058 10.2895556,29.4412508 10.728,29.4412508 L10.7282222,29.4412508 C11.2346667,29.4412508 11.7186667,29.2269228 12.0562963,28.8530233 C12.7112593,28.1276111 12.6485926,27.0094356 11.9165185,26.3603595 L7.34103704,22.3037621 L11.9539259,17.9735296 C12.2991852,17.6493218 12.4965185,17.2111238 12.5094074,16.7398225 Z M11.1368889,17.1192271 L6.05585185,21.8889788 C5.93533333,22.0020882 5.86814815,22.1600449 5.87051852,22.3246077 C5.87288889,22.4890237 5.94459259,22.6449987 6.0682963,22.7547317 L11.1244444,27.2374894 C11.3684444,27.4537992 11.3894074,27.8265244 11.1711111,28.0683773 C11.056963,28.1948455 10.8996296,28.2645021 10.728,28.2645021 C10.582,28.2645021 10.4415556,28.2112871 10.3325185,28.1145459 L4.31503704,22.7794675 C4.1917037,22.6701015 4.11955556,22.5133191 4.11718519,22.3493435 C4.11488889,22.1853679 4.18244444,22.0266038 4.30251852,21.9138614 L10.32,16.2649979 C10.4311852,16.1606232 10.5754815,16.1036648 10.728,16.1036648 C10.7334815,16.1036648 10.739037,16.1037382 10.7444444,16.103885 C10.903037,16.1081422 11.0503704,16.1733213 11.1594815,16.2873849 C11.2685926,16.4014485 11.3262963,16.5508175 11.322,16.7079669 C11.3178519,16.8651163 11.2520741,17.0111823 11.1368889,17.1192271 Z" id="Shape"></path>
                    <path d="M34.4401481,21.0594855 L28.4226667,15.410622 C27.7096296,14.7412875 26.5798519,14.7713815 25.9040741,15.4780766 C25.2285926,16.1846249 25.2591111,17.304195 25.9721481,17.973603 L30.585037,22.3038355 L26.0095556,26.3604329 C25.2775556,27.009509 25.2148148,28.1276111 25.8697778,28.8531701 C26.2074074,29.2269228 26.6914074,29.4413242 27.1977037,29.4413242 L27.1979259,29.4413242 C27.6365185,29.4413242 28.0582222,29.2816058 28.3852593,28.9916024 L34.4027407,23.656524 C34.7728889,23.3283526 34.9891852,22.8579321 34.9960741,22.3659319 C35.0031852,21.8740052 34.8005185,21.397786 34.4401481,21.0594855 Z M33.6108148,22.7795409 L27.5933333,28.1146193 C27.4842963,28.2112871 27.3439259,28.2645755 27.1978519,28.2645755 L27.1977778,28.2645755 C27.0263704,28.2645755 26.869037,28.1949189 26.7548889,28.0685241 C26.5365185,27.8267446 26.5574074,27.453946 26.8014074,27.2375628 L31.8574815,22.7548051 C31.9812593,22.6451455 32.052963,22.4891705 32.0552593,22.3246811 C32.0576296,22.1601917 31.9904444,22.002235 31.8699259,21.8890522 L26.7888889,17.1193005 C26.5511852,16.8961645 26.540963,16.5229255 26.7661481,16.2874583 C26.8827407,16.165541 27.0399259,16.1040318 27.1974074,16.1040318 C27.3440741,16.1040318 27.4911111,16.1573936 27.6056296,16.2649979 L33.6231111,21.9138614 C33.7433333,22.0266038 33.8107407,22.1853679 33.8084444,22.3493435 L33.8084444,22.3494903 L33.8085185,22.3494903 C33.8062963,22.5133925 33.7342963,22.6701749 33.6108148,22.7795409 Z" id="Shape"></path>
                    <path d="M23.5335556,16.8609325 C23.4098519,16.4055589 23.1145926,16.0252002 22.7022963,15.7900266 C22.7022963,15.7899532 22.7022222,15.7899532 22.7022222,15.7899532 C21.8507407,15.3044856 20.7595556,15.5956634 20.2694815,16.4390293 L14.252,26.7953279 C13.7618519,27.6388406 14.0557037,28.7202427 14.907037,29.2060038 C15.1772593,29.3600704 15.4842222,29.4416178 15.7946667,29.4416178 C16.4305926,29.4416178 17.0225926,29.1025832 17.3396296,28.5569277 L23.3571111,18.2007025 C23.5945185,17.7920114 23.6572593,17.3161592 23.5335556,16.8609325 Z M22.3279259,17.6133558 L16.3105185,27.9696543 C16.2048148,28.1516129 16.0071111,28.2646489 15.7947407,28.2646489 C15.6903704,28.2646489 15.5911111,28.2382249 15.4995556,28.1860375 C15.2157778,28.0241905 15.1178519,27.6636498 15.2811852,27.3824544 L21.2987407,17.0261559 C21.4084444,16.8372977 21.6086667,16.7315283 21.8143704,16.7315283 C21.9148148,16.7315283 22.0165926,16.7567779 22.1097037,16.8099195 C22.2471852,16.8883107 22.3455556,17.0150725 22.3867407,17.1667902 C22.428,17.318508 22.4071111,17.4771254 22.3279259,17.6133558 Z" id="Shape"></path>
                </g>
            </g>
        </g>
    </g>
</svg>