<?xml version="1.0" encoding="UTF-8"?>
<svg width="105px" height="109px" viewBox="0 0 105 109" version="1.1" xmlns="http://www.w3.org/2000/svg" xmlns:xlink="http://www.w3.org/1999/xlink">
    <!-- Generator: Sketch 42 (36781) - http://www.bohemiancoding.com/sketch -->
    <title>Layer_1</title>
    <desc>Created with Sketch.</desc>
    <defs></defs>
    <g id="Page-1" stroke="none" stroke-width="1" fill="none" fill-rule="evenodd">
        <g id="logo-umbraco-rocket">
            <g id="Layer_1">
                <g id="Group">
                    <g id="Group-5" transform="translate(35.000000, 39.000000)">
                        <circle id="Oval-2" fill="#A75265" cx="35" cy="35" r="35"></circle>
                        <g id="wordpress" transform="translate(12.000000, 15.000000)" fill-rule="nonzero" fill="#FFFFFF">
                            <g id="Layer_1">
                                <path d="M42.4363809,3.41754993 C41.48425,0.952621528 40.3816191,0.0779398148 36.0892617,0.0779398148 C33.4623984,0.0779398148 31.4821309,2.05153983 31.4821309,4.66955845 C31.4821309,6.07080692 32.2131309,7.36023006 32.9856191,8.72624016 C33.2843516,9.25431355 33.5929941,9.79912726 33.8609883,10.3562451 L34.1558574,10.9577248 C34.8331074,12.3268319 35.3214766,13.3162685 35.3214766,15.3832795 C35.3214766,16.1722507 35.1640898,17.111299 34.8116074,18.4152862 C34.803125,18.4344539 34.7954824,18.4542911 34.7878398,18.4749654 L32.2307676,26.0497091 L25.6018809,7.43221344 C25.7938691,7.40467561 25.9850176,7.38174137 26.17625,7.35035327 C27.4156074,7.31360827 28.4107383,6.29814047 28.4107383,5.05533912 C28.4107383,3.78885022 27.3779824,2.75948795 26.1071309,2.75948795 C26.0656426,2.75948795 26.0226426,2.76333823 25.9812383,2.76944844 C23.0073516,3.26303677 19.9927324,3.26303677 17.0188457,2.76944844 C16.9781133,2.76333823 16.9351133,2.75948795 16.8929531,2.75948795 C15.6229414,2.75948795 14.5893457,3.78876652 14.5893457,5.05533912 C14.5893457,6.29814047 15.5852324,7.31369197 16.8245898,7.35035327 C17.0894766,7.39320849 17.3552031,7.42844686 17.6216016,7.46435485 L20.6845957,15.4001872 L16.872209,26.655039 L9.95533984,7.36868392 C9.99220898,7.36182039 10.0283223,7.3572168 10.0651074,7.35035327 C11.2967383,7.30674474 12.2857383,6.29429019 12.2857383,5.05609243 C12.2857383,3.78960354 11.2529824,2.76024127 9.98213086,2.76024127 C9.93224414,2.76024127 9.88151758,2.76484485 9.83163086,2.77480535 C7.38449414,3.26228346 4.902,3.26228346 2.45486328,2.77480535 C2.40497656,2.76484485 2.35425,2.76024127 2.30360742,2.76024127 C1.03351172,2.76015757 0,3.78951983 0,5.05600873 C0,6.28198606 0.970607422,7.28297348 2.18535742,7.34491267 L11.5816133,33.0434799 C12.1029883,34.499804 13.313875,35.5880085 14.8212266,35.9561282 C15.1798398,36.0425919 15.5399648,36.0846938 15.8962266,36.0846938 C17.8319824,36.0846938 19.6387383,34.8495093 20.2722324,32.9547562 L24.5968398,20.0262909 L29.2377324,33.0014617 C29.6662207,34.0353439 30.3833633,34.7822132 31.255625,35.105971 C32.0250059,35.3906402 32.8596426,35.328701 33.6052559,34.9521275 C34.5996309,34.5557167 35.3643926,33.7490844 35.7037734,32.7374669 L41.4097559,15.7736637 C42.7243633,12.4952395 43,9.60251221 43,7.75362758 L43,6.49701547 C43,5.42412837 42.8103633,4.38790257 42.4363809,3.41754993 Z" id="Shape"></path>
                            </g>
                        </g>
                    </g>
                    <circle id="Oval-2" fill="#57385C" cx="35" cy="35" r="35"></circle>
                    <g id="Group-4" transform="translate(19.000000, 22.000000)" fill="#FFFFFF">
                        <path d="M31.3734748,16.7796341 C30.8992439,19.2850306 30.037006,21.4827468 27.9245231,23.0211481 C26.5449425,23.9881433 24.9929142,24.5155951 23.3115503,24.8232754 C20.8541723,25.306773 18.3967942,25.438636 16.1980876,25.3946816 C12.9646954,25.3946816 10.0330865,25.306773 7.14458949,24.5155951 C4.08364491,23.680463 1.88493823,21.8783357 0.893364636,18.7136244 C0.419133785,17.1312687 0.160462411,15.5049587 0.0742386204,13.8346944 C-0.184432753,9.39530762 0.246686203,5.04382953 1.15203601,0.736305755 C1.32448359,-0.010917756 1.45381928,-0.0988264044 2.14360961,0.0769908924 C3.09207131,0.252808189 4.04053301,0.384671162 5.03210661,0.560488459 C5.67878504,0.648397107 5.80812073,0.824214404 5.67878504,1.52748359 C5.37700177,3.5493825 5.0752185,5.57128142 4.85965903,7.54922601 C4.60098765,10.2304398 4.60098765,12.8676992 5.1183304,15.548913 C5.63567315,18.2301268 7.14458949,19.8124825 9.77441512,20.2080714 C13.8269333,20.8234319 17.8794515,20.8673862 21.9319697,20.1641171 C24.8635786,19.6806195 26.1569354,18.1422181 26.6311663,15.1533241 C27.0622852,12.6039733 27.0191733,10.0546225 26.8036139,7.46131736 C26.6311663,5.43941845 26.2862711,3.41751953 25.9844878,1.43957494 C25.898264,0.78026008 25.9844878,0.604442783 26.6311663,0.516534134 C27.6227399,0.340716838 28.6143135,0.208853865 29.6058871,0.0330365682 C30.1663417,-0.0548720802 30.3819012,0.0769908924 30.468125,0.648397107 C31.0716915,3.50542818 31.4596986,6.40641358 31.5890343,9.3513533 C31.8045937,11.8127955 31.8045937,14.3181919 31.3734748,16.7796341 Z" id="Shape"></path>
                    </g>
                </g>
            </g>
        </g>
    </g>
</svg>